<?xml version="1.0" encoding="UTF-8"?>
<svg version="1.1" viewBox="0 0 224 224" xmlns="http://www.w3.org/2000/svg" xmlns:cc="http://creativecommons.org/ns#" xmlns:dc="http://purl.org/dc/elements/1.1/" xmlns:rdf="http://www.w3.org/1999/02/22-rdf-syntax-ns#">
  <metadata>
    <rdf:RDF>
      <cc:Work rdf:about="">
        <dc:format>image/svg+xml</dc:format>
        <dc:type rdf:resource="http://purl.org/dc/dcmitype/StillImage"/>
        <dc:title/>
      </cc:Work>
    </rdf:RDF>
  </metadata>
  <g stroke-width=".32">
    <path fill="#222222" d="m0 112v-112h224v224h-224z"/>
    <path fill="#ab923a" d="m157.77 134.4-20.539 22.207-6.2065-19.533-16.771 20.027-16.675-20.141-6.4537 20.233-20.743-21.833c-4.4543 7.9357-7.2165 14.554-11.826 23.019l-27.075-71.884 37.666 39.359 10.202-19.404 16.023 19.145 18.761-60.954 18.953 61.34c16.429-19.783 0 0 16.399-19.754l9.5581 18.874 33.834-38.22-22.596 71.839zm-28.5-3.7736-15.057-48.706-15.058 48.895 15.137 18.288zm-35.751 1.2154-13.437-16.427-7.1207 14.646 15.805 17.018zm61.896-2.5289-7.001-13.878-13.372 16.715 5.1662 14.482zm-88.792 1.8254-21.028-22.542 13.666 37.06zm114.11-22.832-19.375 21.754 7.9404 14.856zm-105.09-5.7257c-2.9221-1.2718-2.6787-5.2577 0.38277-6.2681 3.7289-1.2306 5.997 4.0301 2.6242 6.0865-1.2222 0.74517-1.6522 0.77113-3.0069 0.18153zm74.219-0.16426c-1.2604-0.76851-1.7004-1.5567-1.7004-3.0457 0-2.2131 2.7756-3.9371 4.72-2.9316 1.2435 0.64303 1.6783 1.2192 1.8814 2.4928 0.23604 1.4804-0.31615 2.7129-1.5534 3.4672-1.3134 0.80074-2.0563 0.80458-3.3476 0.0173zm-125.06-19.031c-2.8412-1.2735-3.8691-4.345-2.4107-7.2037 1.2137-2.3791 4.8884-3.2732 7.2075-1.7537 2.0585 1.3488 2.7774 4.9102 1.4354 7.1113-1.155 1.8944-4.147 2.7807-6.2322 1.8461zm171.68 0.11322c-2.8789-1.2106-4.1308-4.9159-2.4802-7.3411 1.2288-1.8055 2.2894-2.3861 4.3585-2.3861 2.1124 0 3.2511 0.58526 4.2158 2.1667 2.0464 3.3549 0.0242 7.5126-3.7878 7.788-0.82858 0.05986-1.8664-0.04251-2.3064-0.22749zm-92.739-36.234 10.531-20.704 10.264 20.392-10.245 10.648z"/>
  </g>
</svg>
