<?xml version="1.0" encoding="UTF-8"?>
<svg version="1.1" viewBox="0 0 204 204" xmlns="http://www.w3.org/2000/svg" xmlns:cc="http://creativecommons.org/ns#" xmlns:dc="http://purl.org/dc/elements/1.1/" xmlns:rdf="http://www.w3.org/1999/02/22-rdf-syntax-ns#">
  <metadata>
    <rdf:RDF>
      <cc:Work rdf:about="">
        <dc:format>image/svg+xml</dc:format>
        <dc:type rdf:resource="http://purl.org/dc/dcmitype/StillImage"/>
        <dc:title/>
      </cc:Work>
    </rdf:RDF>
  </metadata>
  <g transform="translate(-10,-10)" stroke-width=".32">
    <path fill="none" id="background" d="m10 10h204v204h-204v-204z"/>
    <path fill="#DE3C4B" d="m157.77 149.31-20.539 25.277-6.2065-22.233-16.771 22.796-16.675-22.926-6.4537 23.03-20.743-24.851c-4.4543 9.0328-7.2165 16.566-11.826 26.201l-27.075-81.822 37.666 44.8 10.202-22.087 16.023 21.792 18.761-69.381 18.953 69.82c16.429-22.518 0 0 16.399-22.485l9.5581 21.483 33.834-43.504-22.596 81.771zm-28.5-4.2953-15.057-55.44-15.058 55.655 15.137 20.816zm-35.751 1.3834-13.437-18.698-7.1207 16.671 15.805 19.371zm61.896-2.8785-7.001-15.797-13.372 19.026 5.1662 16.484zm-88.792 2.0778-21.028-25.658 13.666 42.184zm114.11-25.989-19.375 24.762 7.9404 16.91zm-105.09-6.5173c-2.9221-1.4476-2.6787-5.9846 0.38277-7.1347 3.7289-1.4007 5.997 4.5873 2.6242 6.928-1.2222 0.84819-1.6522 0.87774-3.0069 0.20662zm74.219-0.18697c-1.2604-0.87475-1.7004-1.7719-1.7004-3.4668 0-2.5191 2.7756-4.4814 4.72-3.3369 1.2435 0.73193 1.6783 1.3878 1.8814 2.8374 0.23604 1.6851-0.31615 3.088-1.5534 3.9465-1.3134 0.91145-2.0563 0.91582-3.3476 0.0197zm-125.06-21.662c-2.8412-1.4496-3.8691-4.9457-2.4107-8.1996 1.2137-2.708 4.8884-3.7257 7.2075-1.9962 2.0585 1.5353 2.7774 5.589 1.4354 8.0944-1.155 2.1563-4.147 3.1651-6.2322 2.1013zm171.68 0.12887c-2.8789-1.378-4.1308-5.5955-2.4802-8.356 1.2288-2.0551 2.2894-2.716 4.3585-2.716 2.1124 0 3.2511 0.66617 4.2158 2.4662 2.0464 3.8187 0.0242 8.5512-3.7878 8.8647-0.82858 0.06813-1.8664-0.04839-2.3064-0.25894zm-92.739-41.243 10.531-23.566 10.264 23.211-10.245 12.12z"/>
  </g>
</svg>
